# xmcd
#
# Track frame offsets:
#	182
#	10865
#	22002
#	32315
#	45352
#	58420
#	68265
#	78707
#	88330
#	98825
#	108622
#	119520
#	130682
#	141727
#	152857
#	165212
#	174957
#	185415
#	196017
#	207080
#	218507
#	228870
#
# Disc length: 3183
#
# Revision: 3
# Processed by: cddbd v1.5.1PL0 Copyright (c) Steve Scherf et al.
# Submitted via: libkcddb 0.10
# Normalized: r2:TDELIM( - )
#
DISCID=200c6d16
DTITLE=Various Artist - New Orleans 2
DYEAR=1900
DGENRE=
TTITLE0=Clarence 'Frogamn' Henry - Ain't got no home
TTITLE1=Bobby Charles - I ain't gonna do it no more
TTITLE2=Paul Gayten - Nervous Boggie
TTITLE3=Clifton Chenier - My soul
TTITLE4=Clifton Chenier - Bayou drive
TTITLE5=Clarence 'Frogman' Henry - It won't be long
TTITLE6=Eddie Bo - Hip Hop Hooray
TTITLE7=T V Slim - Fatfoot Sam
TTITLE8=Eddie Bo - Where's my baby
TTITLE9=Edgar Blanchar - Lawdy Mama
TTITLE10=Paul Gayten - Tickle Toe
TTITLE11=Clarence 'Frogman' Henry - I'm in love
TTITLE12=Eddie Bo - Oh Oh
TTITLE13=Miles and Dupont - Loud mouth Annie
TTITLE14=Rod Bernard - This should go on for ever
TTITLE15=Rod Bernard - Pardon Mr. Gordon
TTITLE16=Clarence 'Frogman' Henry - But I do
TTITLE17=Clarence 'Frogman' Henry - Little Suzy
TTITLE18=Reggie Hall - The joke
TTITLE19=Reggie Hall - You can think what you want
TTITLE20=Clarence 'Frogman' Henry - The glory of love
TTITLE21=Earl King - Feeling my way around
EXTD=
EXTT0=
EXTT1=
EXTT2=
EXTT3=
EXTT4=
EXTT5=
EXTT6=
EXTT7=
EXTT8=
EXTT9=
EXTT10=
EXTT11=
EXTT12=
EXTT13=
EXTT14=
EXTT15=
EXTT16=
EXTT17=
EXTT18=
EXTT19=
EXTT20=
EXTT21=
PLAYORDER=
